<?xml version="1.0" standalone="no"?>
<!DOCTYPE svg PUBLIC "-//W3C//DTD SVG 20010904//EN"
 "http://www.w3.org/TR/2001/REC-SVG-20010904/DTD/svg10.dtd">
<svg version="1.0" xmlns="http://www.w3.org/2000/svg"
 width="464.000000pt" height="271.000000pt" fill="red" viewBox="0 0 464.000000 271.000000"
 preserveAspectRatio="xMidYMid meet">

<g transform="translate(0.000000,271.000000) scale(0.100000,-0.100000)"
fill="#000000" stroke="none">
<path d="M3430 2439 c-150 -40 -353 -172 -496 -320 -216 -225 -286 -305 -346
-398 -38 -57 -44 -65 -66 -85 -12 -11 -34 -40 -49 -65 -15 -25 -35 -55 -46
-66 -11 -11 -25 -34 -32 -50 -7 -17 -23 -39 -34 -49 -12 -11 -21 -23 -21 -29
0 -5 -16 -32 -35 -58 -19 -27 -35 -52 -35 -57 0 -24 -50 -60 -100 -72 -80 -19
-290 -96 -307 -113 -22 -22 -5 -50 26 -43 124 26 239 46 254 44 15 -3 13 -10
-15 -56 -30 -48 -38 -54 -95 -72 -34 -10 -97 -26 -140 -34 -43 -9 -125 -27
-183 -40 -58 -13 -125 -27 -150 -31 -25 -4 -115 -24 -200 -45 -298 -75 -663
-75 -752 -1 -20 17 -11 47 32 99 28 34 44 102 20 87 -6 -4 -7 1 -3 12 7 21 -2
13 -37 -32 l-23 -30 7 29 c7 26 6 28 -9 16 -25 -21 -45 -65 -45 -100 0 -24 -4
-31 -17 -28 -9 2 -18 10 -21 18 -3 8 -1 11 4 7 14 -14 34 73 21 93 -9 16 -3
27 36 72 26 29 68 79 95 110 26 31 54 57 62 57 8 1 20 11 25 23 10 23 91 84
150 114 21 10 13 0 -25 -33 -90 -78 -199 -185 -241 -235 l-40 -46 30 11 c16 6
35 22 43 35 7 13 33 41 59 63 26 21 52 52 59 69 14 33 20 36 38 18 9 -9 12 -8
12 7 0 13 22 36 58 62 31 23 73 58 91 77 19 20 40 36 45 36 6 0 34 18 61 40
28 22 58 40 67 40 9 0 30 11 46 25 17 14 34 25 40 25 5 0 12 6 15 14 3 8 21
17 39 21 18 4 46 18 61 31 38 32 57 31 27 -1 -13 -14 -27 -25 -31 -25 -17 0
-338 -217 -399 -269 -105 -92 -240 -223 -240 -234 0 -5 -11 -25 -25 -43 -28
-37 -30 -44 -12 -44 7 0 18 9 25 21 10 15 20 19 38 15 14 -4 24 -2 24 4 0 6
-4 8 -10 5 -6 -4 -10 5 -10 19 0 14 5 26 12 26 6 0 41 28 78 63 70 65 148 124
157 119 3 -2 17 7 31 21 15 14 39 28 53 32 14 4 48 29 75 56 26 27 52 49 57
49 5 0 21 8 35 19 15 10 70 41 122 68 52 28 115 62 140 76 90 51 107 60 254
118 183 72 256 93 256 73 0 -10 8 -12 30 -8 53 11 44 -3 -113 -169 -45 -47
-47 -52 -28 -58 11 -5 27 -19 36 -33 27 -40 85 -80 98 -67 6 6 18 11 26 11 15
0 101 86 101 101 0 4 24 24 53 43 28 19 65 48 81 65 17 17 39 31 50 31 17 0
18 -2 6 -10 -8 -5 -11 -13 -6 -17 14 -15 35 28 31 67 -5 53 -19 76 -64 104
-21 13 -46 32 -56 42 -19 19 -146 74 -171 74 -8 0 -14 4 -14 9 0 5 -20 20 -44
32 l-44 22 -39 -24 c-21 -13 -60 -34 -88 -45 -47 -20 -205 -93 -429 -198 -55
-26 -129 -69 -165 -95 -36 -27 -122 -86 -191 -131 -180 -120 -270 -193 -396
-321 -108 -111 -156 -177 -169 -231 -4 -15 -13 -29 -20 -32 -30 -11 -27 -62 8
-138 33 -71 117 -178 140 -178 7 0 24 -6 38 -14 38 -20 79 -30 124 -31 22 -1
64 -5 93 -9 43 -7 52 -6 52 6 0 24 63 45 158 51 12 1 22 7 22 14 0 6 21 15 48
19 55 8 116 30 152 55 14 10 65 27 115 39 49 11 99 27 110 34 22 14 101 39
195 60 30 6 71 19 90 28 19 9 62 22 95 29 33 7 72 18 87 26 58 29 59 16 4 -75
-29 -48 -76 -133 -105 -190 l-53 -102 42 -41 c39 -38 45 -41 82 -35 39 6 78
25 78 37 0 4 16 26 35 49 27 33 33 46 24 56 -15 19 -3 69 34 134 77 138 240
406 250 412 20 12 139 46 277 78 96 23 188 36 320 46 226 17 631 30 655 20 15
-5 9 -12 -30 -37 -26 -16 -78 -55 -115 -85 -37 -29 -70 -54 -73 -54 -3 0 -18
20 -33 45 -29 51 -44 50 -44 -1 0 -29 -20 -61 -113 -187 -62 -84 -131 -183
-153 -222 -44 -77 -48 -79 -204 -112 -41 -8 -93 -19 -115 -24 -187 -43 -277
-48 -283 -15 -3 11 0 16 7 12 6 -4 11 -2 11 4 0 7 -9 14 -20 17 -11 3 -20 10
-20 16 0 21 140 194 196 243 31 27 64 57 72 67 9 9 22 17 29 17 16 0 6 -28
-21 -59 l-21 -23 40 23 c22 12 56 35 75 50 44 34 151 82 159 72 3 -5 34 -8 69
-8 58 0 62 1 62 23 0 29 -18 63 -41 79 -9 7 -30 33 -45 58 -30 46 -66 60 -78
30 -3 -8 -10 -15 -15 -15 -5 0 -27 -16 -48 -35 -24 -23 -31 -33 -18 -29 16 6
15 3 -5 -13 -33 -27 -105 -63 -125 -63 -9 0 -30 -12 -46 -27 -16 -16 -35 -29
-42 -29 -6 -1 -19 -2 -28 -3 -35 -2 -170 -153 -207 -230 -50 -108 -27 -246 46
-277 58 -24 138 -20 212 9 36 15 74 28 85 30 11 1 25 5 30 9 6 3 39 14 75 23
35 9 76 22 90 29 14 7 37 16 53 20 26 6 29 3 62 -69 29 -64 38 -75 59 -75 37
0 56 10 56 31 0 11 18 58 39 106 l40 87 80 26 c90 29 117 46 56 36 -22 -4 -57
-10 -79 -13 l-38 -6 17 34 c10 19 32 57 50 84 18 28 36 60 39 72 4 12 55 68
115 125 78 75 129 114 187 145 148 78 316 120 429 107 44 -5 62 -13 90 -41 20
-20 38 -33 40 -31 12 12 -52 81 -98 106 -48 25 -61 27 -162 26 -96 0 -122 -4
-207 -32 -89 -30 -104 -32 -190 -27 -240 13 -321 14 -490 5 -213 -11 -461 -35
-567 -56 -41 -7 -77 -12 -79 -9 -3 3 11 29 31 60 21 30 37 59 37 64 0 5 7 11
15 15 8 3 15 11 15 17 0 7 9 21 21 33 32 33 89 107 89 116 0 5 30 39 66 77 36
37 72 79 80 93 25 43 58 83 103 125 24 22 50 47 58 55 64 72 104 110 112 110
6 0 23 13 37 29 15 17 81 67 148 112 66 45 126 86 131 93 18 19 69 52 105 66
19 7 40 17 45 21 6 3 31 6 56 5 64 -3 102 -33 141 -113 80 -164 33 -430 -130
-723 -59 -105 -78 -158 -31 -85 17 28 48 75 69 105 54 79 83 146 136 310 43
133 47 154 48 250 1 100 -1 109 -32 172 -76 156 -211 208 -402 157z m-1695
-579 c-3 -5 -11 -10 -16 -10 -6 0 -7 5 -4 10 3 6 11 10 16 10 6 0 7 -4 4 -10z
m-190 -100 c-3 -5 -12 -10 -18 -10 -7 0 -6 4 3 10 19 12 23 12 15 0z m-100
-41 c-4 -6 -59 -45 -124 -88 -156 -104 -145 -97 -132 -72 7 11 18 21 26 21 8
0 29 14 47 31 26 25 172 118 186 119 2 0 0 -5 -3 -11z m95 -19 c0 -9 -41 -30
-58 -30 -9 1 41 39 51 40 4 0 7 -5 7 -10z m-70 -44 c0 -3 -4 -8 -10 -11 -5 -3
-10 -1 -10 4 0 6 5 11 10 11 6 0 10 -2 10 -4z m-366 -174 c-22 -16 -50 -34
-62 -41 -22 -12 -22 -11 -10 9 12 19 81 60 102 60 5 0 -9 -13 -30 -28z m1761
-427 c-42 -36 -67 -47 -44 -18 14 16 69 53 79 53 3 -1 -13 -16 -35 -35z"/>
<path d="M2402 1728 c2 -6 10 -14 16 -16 7 -2 10 2 6 12 -7 18 -28 22 -22 4z"/>
<path d="M672 887 c-32 -34 -28 -58 4 -25 15 14 25 31 22 38 -2 7 -12 2 -26
-13z"/>
<path d="M2655 850 c-3 -5 -1 -10 4 -10 6 0 11 5 11 10 0 6 -2 10 -4 10 -3 0
-8 -4 -11 -10z"/>
<path d="M625 820 c-3 -5 -1 -10 4 -10 6 0 11 5 11 10 0 6 -2 10 -4 10 -3 0
-8 -4 -11 -10z"/>
<path d="M2605 800 c-3 -5 -1 -10 4 -10 6 0 11 5 11 10 0 6 -2 10 -4 10 -3 0
-8 -4 -11 -10z"/>
</g>
</svg>
